<?xml version="1.0" standalone="no"?><!DOCTYPE svg PUBLIC "-//W3C//DTD SVG 1.1//EN" "http://www.w3.org/Graphics/SVG/1.1/DTD/svg11.dtd"><svg t="1508836708050" class="icon" style="" viewBox="0 0 1024 1024" version="1.1" xmlns="http://www.w3.org/2000/svg" p-id="12647" xmlns:xlink="http://www.w3.org/1999/xlink" width="30" height="30"><defs><style type="text/css"></style></defs><path d="M512 1024c-50.57536 0-419.84-396.57472-419.84-619.80672S280.12544 0 512 0s419.84 180.9408 419.84 404.19328S562.57536 1024 512 1024z m0-960.02048c-196.1984 0-355.24608 153.38496-355.24608 342.5792S488.76544 959.98976 512 959.98976 867.24608 595.77344 867.24608 406.528 708.1984 63.97952 512 63.97952z m0 512A192.01024 192.01024 0 1 1 705.98656 384 193.00352 193.00352 0 0 1 512 576zM512 256a128 128 0 1 0 129.3312 128A128.6656 128.6656 0 0 0 512 256z" p-id="12648"></path></svg>